<svg width="50" height="54" viewBox="0 0 50 54" fill="none" xmlns="http://www.w3.org/2000/svg">
<g filter="url(#filter0_d_690_5907)">
<mask id="path-1-inside-1_690_5907" fill="white">
<path fill-rule="evenodd" clip-rule="evenodd" d="M27.7943 35.7402C34.7432 34.431 40 28.3294 40 21C40 12.7157 33.2843 6 25 6C16.7157 6 10 12.7157 10 21C10 28.3294 15.2568 34.431 22.2057 35.7402C22.6429 37.6407 23.7292 40 25 40C26.2708 40 27.3571 37.6407 27.7943 35.7402Z"/>
</mask>
<path fill-rule="evenodd" clip-rule="evenodd" d="M27.7943 35.7402C34.7432 34.431 40 28.3294 40 21C40 12.7157 33.2843 6 25 6C16.7157 6 10 12.7157 10 21C10 28.3294 15.2568 34.431 22.2057 35.7402C22.6429 37.6407 23.7292 40 25 40C26.2708 40 27.3571 37.6407 27.7943 35.7402Z" fill="#0BCB76"/>
<path d="M27.7943 35.7402L27.6091 34.7575L26.9664 34.8786L26.8197 35.516L27.7943 35.7402ZM22.2057 35.7402L23.1803 35.516L23.0336 34.8786L22.3909 34.7575L22.2057 35.7402ZM39 21C39 27.8397 34.0942 33.5357 27.6091 34.7575L27.9794 36.7229C35.3922 35.3263 41 28.8191 41 21H39ZM25 7C32.732 7 39 13.268 39 21H41C41 12.1634 33.8366 5 25 5V7ZM11 21C11 13.268 17.268 7 25 7V5C16.1634 5 9 12.1634 9 21H11ZM22.3909 34.7575C15.9058 33.5357 11 27.8397 11 21H9C9 28.8191 14.6078 35.3263 22.0206 36.7229L22.3909 34.7575ZM25 39C24.9997 39 24.9827 39.0006 24.9421 38.9824C24.8986 38.9629 24.8325 38.9235 24.7464 38.8483C24.5689 38.6933 24.3642 38.4373 24.1529 38.077C23.7316 37.3584 23.3823 36.3944 23.1803 35.516L21.2312 35.9644C21.4663 36.9865 21.8788 38.1524 22.4276 39.0885C22.7014 39.5556 23.0339 40.0082 23.4311 40.355C23.8279 40.7014 24.3588 41 25 41V39ZM26.8197 35.516C26.6177 36.3944 26.2684 37.3584 25.8471 38.077C25.6358 38.4373 25.4311 38.6933 25.2536 38.8483C25.1675 38.9235 25.1014 38.9629 25.0579 38.9824C25.0173 39.0006 25.0003 39 25 39V41C25.6412 41 26.1721 40.7014 26.5689 40.355C26.9661 40.0082 27.2986 39.5556 27.5724 39.0885C28.1212 38.1524 28.5337 36.9865 28.7688 35.9644L26.8197 35.516Z" fill="white" mask="url(#path-1-inside-1_690_5907)"/>
</g>
<path fill-rule="evenodd" clip-rule="evenodd" d="M20.0503 15.0503C22.7839 12.3166 27.2161 12.3166 29.9497 15.0503C32.6834 17.7839 32.6834 22.2161 29.9497 24.9497L25 29.8995L20.0503 24.9497C17.3166 22.2161 17.3166 17.7839 20.0503 15.0503ZM25 22C26.1046 22 27 21.1046 27 20C27 18.8954 26.1046 18 25 18C23.8954 18 23 18.8954 23 20C23 21.1046 23.8954 22 25 22Z" fill="white"/>
<defs>
<filter id="filter0_d_690_5907" x="0" y="0" width="50" height="54" filterUnits="userSpaceOnUse" color-interpolation-filters="sRGB">
<feFlood flood-opacity="0" result="BackgroundImageFix"/>
<feColorMatrix in="SourceAlpha" type="matrix" values="0 0 0 0 0 0 0 0 0 0 0 0 0 0 0 0 0 0 127 0" result="hardAlpha"/>
<feOffset dy="4"/>
<feGaussianBlur stdDeviation="5"/>
<feColorMatrix type="matrix" values="0 0 0 0 0 0 0 0 0 0 0 0 0 0 0 0 0 0 0.1 0"/>
<feBlend mode="normal" in2="BackgroundImageFix" result="effect1_dropShadow_690_5907"/>
<feBlend mode="normal" in="SourceGraphic" in2="effect1_dropShadow_690_5907" result="shape"/>
</filter>
</defs>
</svg>
