<svg width="24" height="24" viewBox="0 0 24 24" fill="none" xmlns="http://www.w3.org/2000/svg">
<path fill-rule="evenodd" clip-rule="evenodd" d="M2 21L2 9C2 6.17157 2 4.75736 2.87868 3.87868C3.75736 3 5.17157 3 8 3L16 3C16.4612 3 16.9102 3.05203 17.3415 3.15053C15.4176 3.66164 14 5.41527 14 7.5V11.0002L13.9012 20.9671L11 20L8 21L5 20L2 21ZM20 11L17 11V7.5C17 6.67157 17.6716 6 18.5 6C19.3284 6 20 6.67157 20 7.5V11ZM3.5 7.00004C3.5 6.17161 4.17157 5.50004 5 5.50004H11C11.8284 5.50004 12.5 6.17161 12.5 7.00004C12.5 7.82846 11.8284 8.50004 11 8.50004H5C4.17157 8.50004 3.5 7.82846 3.5 7.00004ZM3.5 11C3.5 10.1716 4.17157 9.50004 5 9.50004H7C7.82843 9.50004 8.5 10.1716 8.5 11C8.5 11.8285 7.82843 12.5 7 12.5H5C4.17157 12.5 3.5 11.8285 3.5 11ZM3.5 15C3.5 14.1716 4.17157 13.5 5 13.5H9C9.82843 13.5 10.5 14.1716 10.5 15C10.5 15.8285 9.82843 16.5 9 16.5H5C4.17157 16.5 3.5 15.8285 3.5 15Z" fill="#0BCB76"/>
</svg>
